<svg width="512" height="512" viewBox="0 0 512 512" fill="none" xmlns="http://www.w3.org/2000/svg">
    <path d="M106.667 256C106.667 175.733 171.467 111.467 251.733 111.467H260.267C340.533 111.467 405.333 175.733 405.333 256V405.333H106.667V256Z" fill="white"/>
    <path d="M213.333 298.667C222.448 298.667 229.867 291.248 229.867 282.133C229.867 273.019 222.448 265.6 213.333 265.6C204.219 265.6 196.8 273.019 196.8 282.133C196.8 291.248 204.219 298.667 213.333 298.667Z" fill="#2D1B4E"/>
    <path d="M300.8 298.667C309.915 298.667 317.333 291.248 317.333 282.133C317.333 273.019 309.915 265.6 300.8 265.6C291.685 265.6 284.267 273.019 284.267 282.133C284.267 291.248 291.685 298.667 300.8 298.667Z" fill="#2D1B4E"/>
    <path d="M106.667 405.333C106.667 396.219 114.085 388.8 123.2 388.8H150.4C159.515 388.8 166.933 396.219 166.933 405.333V422.4C166.933 431.515 159.515 438.933 150.4 438.933H123.2C114.085 438.933 106.667 431.515 106.667 422.4V405.333Z" fill="white"/>
    <path d="M176 405.333C176 388.219 189.781 374.4 206.4 374.4H233.6C250.219 374.4 264 388.219 264 405.333V447.467C264 464.581 250.219 478.4 233.6 478.4H206.4C189.781 478.4 176 464.581 176 447.467V405.333Z" fill="white"/>
    <path d="M273.067 405.333C273.067 396.219 280.485 388.8 289.6 388.8H316.8C325.915 388.8 333.333 396.219 333.333 405.333V422.4C333.333 431.515 325.915 438.933 316.8 438.933H289.6C280.485 438.933 273.067 431.515 273.067 422.4V405.333Z" fill="white"/>
    <path d="M342.4 405.333C342.4 388.219 356.181 374.4 372.8 374.4H400C416.619 374.4 430.4 388.219 430.4 405.333V447.467C430.4 464.581 416.619 478.4 400 478.4H372.8C356.181 478.4 342.4 464.581 342.4 447.467V405.333Z" fill="white"/>
    <path d="M405.333 405.333H106.667" stroke="white" stroke-width="0.5"/>
</svg>